<?xml version="1.0" standalone="no"?><!DOCTYPE svg PUBLIC "-//W3C//DTD SVG 1.1//EN" "http://www.w3.org/Graphics/SVG/1.1/DTD/svg11.dtd"><svg t="1612601681029" class="icon" viewBox="0 0 1024 1024" version="1.1" xmlns="http://www.w3.org/2000/svg" p-id="1155" xmlns:xlink="http://www.w3.org/1999/xlink" width="200" height="200"><defs><style type="text/css"></style></defs><path d="M462.5 559.5L176 394.1c-8.6-5-15.6-2-15.6 6.6v296.8c0 8.6 7 19.7 15.6 24.6l286.5 165.4c8.6 5 15.6 2 15.6-6.6V584.2c0-8.7-7-19.7-15.6-24.7zM848.8 394.1L562.4 559.5c-8.6 5-15.6 16-15.6 24.6V881c0 8.6 7 11.6 15.6 6.6l286.5-165.4c8.6-5 15.6-16 15.6-24.6V400.7c0-8.6-7-11.6-15.7-6.6zM830.5 311.9l-305.3-176c-6.7-3.9-17.5-3.9-24.2 0l-305.3 176c-6.7 3.9-6.7 10.1 0 14l305.3 176c6.7 3.9 17.5 3.9 24.2 0l305.3-176c6.7-3.9 6.7-10.2 0-14z"  p-id="1156"></path></svg>