<?xml version="1.0" standalone="no"?><!DOCTYPE svg PUBLIC "-//W3C//DTD SVG 1.1//EN" "http://www.w3.org/Graphics/SVG/1.1/DTD/svg11.dtd"><svg t="1614169433882" class="icon" viewBox="0 0 1024 1024" version="1.1" xmlns="http://www.w3.org/2000/svg" p-id="2861" xmlns:xlink="http://www.w3.org/1999/xlink" width="200" height="200"><defs><style type="text/css"></style></defs><path d="M805.632 549.376c-6.954667-92.586667 54.314667-151.04 112.128-191.701333-54.357333-48.725333-101.546667-95.872-201.429333-100.693334-80.554667-3.242667-117.333333 42.24-192.682667 43.861334-70.016 1.621333-64.853333-50.346667-210.176-35.754667-126.037333 13.013333-236.416 129.962667-227.669333 294.016C94.592 736.170667 227.712 981.333333 352 981.333333c87.552-1.621333 108.544-40.533333 180.437333-40.533333 89.301333 0 110.293333 48.725333 180.394667 38.997333 120.917333-16.298667 234.666667-193.28 234.666667-250.069333-66.56-32.597333-133.12-87.765333-141.866667-180.352zM704.085333 42.666667c-166.4 21.077333-213.674667 162.432-204.885333 227.328C627.029333 276.48 723.370667 151.466667 704.085333 42.666667z" p-id="2862"></path></svg>